<svg width="189" height="189" viewBox="0 0 189 189" fill="none" xmlns="http://www.w3.org/2000/svg">
<g clip-path="url(#clip0)">
<path d="M94.2764 188.553C146.344 188.553 188.553 146.344 188.553 94.2764C188.553 42.209 146.344 0 94.2764 0C42.209 0 0 42.209 0 94.2764C0 146.344 42.209 188.553 94.2764 188.553Z" fill="url(#paint0_linear)"/>
<path d="M94.2764 157.133C128.991 157.133 157.134 128.991 157.134 94.2763C157.134 59.5613 128.991 31.4192 94.2764 31.4192C59.5614 31.4192 31.4192 59.5613 31.4192 94.2763C31.4192 128.991 59.5614 157.133 94.2764 157.133Z" stroke="#00FFFF" stroke-width="15.1181"/>
<path d="M176.63 104.378C182.209 104.378 186.731 99.8553 186.731 94.2764C186.731 88.6975 182.209 84.1748 176.63 84.1748C171.051 84.1748 166.528 88.6975 166.528 94.2764C166.528 99.8553 171.051 104.378 176.63 104.378Z" fill="#00FFFF"/>
<path d="M11.9226 104.378C17.5015 104.378 22.0242 99.8554 22.0242 94.2765C22.0242 88.6975 17.5015 84.1749 11.9226 84.1749C6.34367 84.1749 1.82117 88.6975 1.82117 94.2765C1.82117 99.8554 6.34367 104.378 11.9226 104.378Z" fill="#00FFFF"/>
<path d="M160.546 144.201C165.377 146.991 171.555 145.335 174.345 140.504C177.134 135.672 175.479 129.494 170.647 126.705C165.816 123.916 159.638 125.571 156.848 130.403C154.059 135.234 155.714 141.412 160.546 144.201Z" fill="#00FFFF"/>
<path d="M17.9051 61.848C22.7365 64.6374 28.9145 62.982 31.7039 58.1505C34.4934 53.319 32.8381 47.141 28.0066 44.3516C23.1751 41.5621 16.997 43.2175 14.2075 48.0489C11.4181 52.8804 13.0736 59.0585 17.9051 61.848Z" fill="#00FFFF"/>
<path d="M126.705 170.647C129.494 175.479 135.672 177.134 140.504 174.345C145.335 171.555 146.991 165.377 144.201 160.546C141.412 155.714 135.234 154.059 130.402 156.848C125.571 159.638 123.915 165.816 126.705 170.647Z" fill="#00FFFF"/>
<path d="M44.3514 28.0068C47.1409 32.8383 53.3189 34.4936 58.1503 31.7041C62.9818 28.9147 64.6373 22.7368 61.8478 17.9053C59.0584 13.0738 52.8803 11.4183 48.0488 14.2078C43.2173 16.9972 41.562 23.1753 44.3514 28.0068Z" fill="#00FFFF"/>
<path d="M84.1747 176.63C84.1747 182.209 88.6973 186.731 94.2763 186.731C99.8552 186.731 104.378 182.209 104.378 176.63C104.378 171.051 99.8552 166.528 94.2763 166.528C88.6973 166.528 84.1747 171.051 84.1747 176.63Z" fill="#00FFFF"/>
<path d="M84.1749 11.9227C84.1749 17.5016 88.6975 22.0241 94.2764 22.0241C99.8553 22.0241 104.378 17.5016 104.378 11.9227C104.378 6.34378 99.8553 1.82104 94.2764 1.82104C88.6975 1.82104 84.1749 6.34378 84.1749 11.9227Z" fill="#00FFFF"/>
<path d="M44.3513 160.546C41.5619 165.377 43.2173 171.555 48.0488 174.345C52.8803 177.134 59.0583 175.479 61.8477 170.647C64.6372 165.816 62.9817 159.638 58.1502 156.849C53.3188 154.059 47.1408 155.714 44.3513 160.546Z" fill="#00FFFF"/>
<path d="M126.705 17.9055C123.915 22.737 125.571 28.9149 130.402 31.7043C135.234 34.4938 141.412 32.8385 144.201 28.007C146.991 23.1755 145.335 16.9974 140.504 14.208C135.672 11.4185 129.494 13.074 126.705 17.9055Z" fill="#00FFFF"/>
<path d="M17.9054 126.705C13.0739 129.494 11.4186 135.672 14.2081 140.504C16.9975 145.335 23.1754 146.991 28.0069 144.201C32.8384 141.412 34.4937 135.234 31.7042 130.402C28.9148 125.571 22.7369 123.916 17.9054 126.705Z" fill="#00FFFF"/>
<path d="M160.546 44.3515C155.714 47.1409 154.059 53.3189 156.848 58.1504C159.638 62.9819 165.816 64.6373 170.647 61.8479C175.479 59.0584 177.134 52.8803 174.345 48.0488C171.555 43.2174 165.377 41.562 160.546 44.3515Z" fill="#00FFFF"/>
</g>
<defs>
<linearGradient id="paint0_linear" x1="187.437" y1="188.644" x2="1.11595" y2="0.341511" gradientUnits="userSpaceOnUse">
<stop stop-color="#004455"/>
<stop offset="0.333896" stop-color="#008066"/>
<stop offset="0.613337" stop-color="#00D4AA"/>
<stop offset="1" stop-color="#AAFFEE"/>
</linearGradient>
<clipPath id="clip0">
<rect width="188.553" height="188.553" fill="white"/>
</clipPath>
</defs>
</svg>
