<svg width="189" height="82" viewBox="0 0 189 82" fill="none" xmlns="http://www.w3.org/2000/svg">
<path d="M57.5119 1.6001L53.7811 4.59819C53.7811 4.59819 52.7577 4.25705 51.9779 4.98806C51.1982 5.71906 3.20328 45.5708 1.68705 46.3978C0.1708 47.2248 0.44649 48.4654 10.0952 48.6032C19.744 48.7411 44.8307 47.087 47.1739 47.3627C49.5172 47.6384 52.9977 46.9836 54.1348 46.3634C55.272 45.7431 57.0295 44.5714 53.549 44.6404C50.0686 44.7093 12.2114 44.9008 12.0165 44.0236C11.8215 43.1464 54.0247 9.44717 54.8045 9.10603C55.5842 8.7649 56.364 8.66744 56.8269 7.91207C57.2899 7.1567 58.9956 5.42666 59.093 4.98806C59.1905 4.54946 60.5794 3.08746 59.7997 2.06405C59.0199 1.04065 57.9044 1.23361 57.5119 1.6001Z" fill="#D5FFF6" stroke="#00FFFF" stroke-width="1.12232"/>
<path d="M73.6219 4.0908C72.5018 6.89108 65.8439 26.0735 64.4578 31.8158C63.0717 37.5581 62.6757 41.0562 62.4777 42.1123C62.2797 43.1683 62.6757 43.8944 62.7417 44.6864C62.8077 45.4785 63.9958 49.0426 64.9198 47.1285C65.8439 45.2144 65.7779 43.7954 66.1739 42.0793C66.5699 40.3632 69.3421 29.8687 69.6391 28.7796C69.9361 27.6906 77.4489 5.49094 76.4222 3.34406C75.3954 1.19717 73.6219 4.0908 73.6219 4.0908Z" fill="#D5FFF6" stroke="#00FFFF" stroke-width="1.12232"/>
<path d="M107.341 1.77388C104.215 4.3793 92.7511 15.0615 90.797 15.8431C88.843 16.6247 85.0651 19.0999 84.1532 20.2723C83.2413 21.4447 78.291 26.395 77.2489 26.7858C76.2067 27.1766 76.7748 28.654 77.0972 28.8843C77.4196 29.1146 98.6061 46.0177 100.633 48.597C102.659 51.1762 106.989 50.3471 108.002 49.2417C109.015 48.1364 119.148 33.6743 121.082 31.6478C123.017 29.6212 121.266 25.476 119.148 25.5682C117.029 25.6603 111.963 26.3051 110.857 26.213C109.752 26.1208 106.252 28.5159 108.739 29.1607C111.226 29.8055 114.634 30.266 116.108 29.9897C117.582 29.7133 115.555 32.1083 114.266 33.8585C112.976 35.6087 108.186 43.9912 106.62 44.636C105.054 45.2808 103.857 45.8335 100.633 43.3464C97.4086 40.8593 85.9864 31.2793 84.6046 29.7133C83.2229 28.1474 82.0254 28.4237 83.7756 27.2262C85.5258 26.0287 99.3431 14.6986 101.738 12.5799C104.133 10.4613 111.158 4.21528 111.594 3.82897C112.167 3.32154 111.998 1.82636 110.993 1.25379C110.077 0.731505 108.397 1.06969 107.341 1.77388H107.341Z" fill="#D5FFF6" stroke="#00FFFF" stroke-width="1.12232"/>
<path d="M172.259 2.81883C171.483 2.87461 170.782 3.09178 170.402 3.42922L165.778 7.14443C165.778 7.14443 164.51 6.72202 163.544 7.628C162.578 8.53397 122.503 45.5071 120.623 46.532C118.744 47.557 119.087 49.0934 131.045 49.2643C138.262 49.3674 151.989 48.6909 162.742 48.1901C160.122 62.023 157.504 75.1988 157.345 77.2737C157.003 81.7153 157.516 80.6902 159.908 80.1777C162.3 79.6652 165.203 76.0776 165.886 71.1235C166.17 69.0654 167.91 58.9004 169.789 47.8704C173.511 47.7176 176.244 47.6391 176.998 47.7277C179.902 48.0694 184.216 47.2572 185.625 46.4884C187.034 45.7197 189.212 44.268 184.898 44.3534C183.515 44.3808 177.58 44.4201 170.374 44.43C172.856 29.8486 175.439 14.5046 175.624 12.017C175.965 7.40461 176.54 5.65969 175.624 4.07266C175.051 3.08077 173.551 2.72586 172.259 2.81884V2.81883ZM168.255 12.2601C168.264 12.3503 168.278 12.5296 168.278 12.5296C168.695 15.4478 166.175 29.8958 163.453 44.426C149.337 44.3983 133.566 44.2184 133.426 43.5884C133.184 42.5012 166.08 13.1546 167.046 12.7318C167.462 12.5501 167.871 12.419 168.255 12.2601H168.255Z" fill="#BC1BF7" stroke="#7E65CD" stroke-width="1.23216"/>
</svg>
