<svg width="189" height="189" viewBox="0 0 189 189" fill="none" xmlns="http://www.w3.org/2000/svg">
<g clip-path="url(#clip0)">
<path d="M94.2764 188.553C146.344 188.553 188.553 146.344 188.553 94.2764C188.553 42.209 146.344 0 94.2764 0C42.209 0 0 42.209 0 94.2764C0 146.344 42.209 188.553 94.2764 188.553Z" fill="url(#paint0_linear)"/>
<path d="M94.2764 157.134C128.991 157.134 157.134 128.991 157.134 94.2765C157.134 59.5614 128.991 31.4193 94.2764 31.4193C59.5614 31.4193 31.4192 59.5614 31.4192 94.2765C31.4192 128.991 59.5614 157.134 94.2764 157.134Z" stroke="#FF00FF" stroke-width="15.1181"/>
<path d="M176.603 104.378C182.182 104.378 186.705 99.8552 186.705 94.2763C186.705 88.6974 182.182 84.1747 176.603 84.1747C171.025 84.1747 166.502 88.6973 166.502 94.2763C166.502 99.8552 171.025 104.378 176.603 104.378Z" fill="#FF00FF"/>
<path d="M11.8963 104.378C17.4753 104.378 21.998 99.8553 21.998 94.2763C21.998 88.6974 17.4753 84.1748 11.8963 84.1748C6.31743 84.1748 1.79492 88.6974 1.79492 94.2763C1.79492 99.8553 6.31743 104.378 11.8963 104.378Z" fill="#FF00FF"/>
<path d="M160.519 144.201C165.351 146.991 171.529 145.335 174.318 140.504C177.108 135.672 175.452 129.494 170.621 126.705C165.79 123.916 159.612 125.571 156.822 130.402C154.033 135.234 155.688 141.412 160.519 144.201Z" fill="#FF00FF"/>
<path d="M17.879 61.8478C22.7105 64.6372 28.8885 62.9818 31.6779 58.1503C34.4674 53.3188 32.8121 47.1408 27.9806 44.3514C23.1491 41.5619 16.971 43.2173 14.1815 48.0487C11.3921 52.8802 13.0476 59.0583 17.879 61.8478Z" fill="#FF00FF"/>
<path d="M126.679 170.647C129.468 175.479 135.646 177.134 140.478 174.344C145.309 171.555 146.965 165.377 144.175 160.546C141.386 155.714 135.208 154.059 130.376 156.848C125.545 159.638 123.889 165.816 126.679 170.647Z" fill="#FF00FF"/>
<path d="M44.3252 28.0068C47.1147 32.8382 53.2926 34.4935 58.1241 31.7041C62.9556 28.9146 64.611 22.7367 61.8216 17.9052C59.0321 13.0737 52.854 11.4182 48.0226 14.2077C43.1911 16.9971 41.5357 23.1753 44.3252 28.0068Z" fill="#FF00FF"/>
<path d="M84.1482 176.63C84.1482 182.209 88.6709 186.731 94.2498 186.731C99.8287 186.731 104.351 182.209 104.351 176.63C104.351 171.051 99.8287 166.528 94.2498 166.528C88.6709 166.528 84.1482 171.051 84.1482 176.63Z" fill="#FF00FF"/>
<path d="M84.1486 11.9226C84.1486 17.5016 88.6712 22.0241 94.2501 22.0241C99.8291 22.0241 104.352 17.5016 104.352 11.9226C104.352 6.34372 99.8291 1.82098 94.2501 1.82098C88.6712 1.82098 84.1486 6.34372 84.1486 11.9226Z" fill="#FF00FF"/>
<path d="M44.3251 160.546C41.5356 165.377 43.1911 171.555 48.0226 174.345C52.8541 177.134 59.032 175.479 61.8215 170.647C64.6109 165.816 62.9555 159.638 58.124 156.848C53.2925 154.059 47.1146 155.714 44.3251 160.546Z" fill="#FF00FF"/>
<path d="M126.679 17.9052C123.889 22.7367 125.545 28.9146 130.376 31.7041C135.208 34.4935 141.386 32.8382 144.175 28.0068C146.965 23.1753 145.309 16.9972 140.478 14.2077C135.646 11.4182 129.468 13.0737 126.679 17.9052Z" fill="#FF00FF"/>
<path d="M17.879 126.705C13.0475 129.494 11.3922 135.672 14.1817 140.504C16.9711 145.335 23.1491 146.991 27.9805 144.201C32.812 141.412 34.4673 135.234 31.6779 130.402C28.8884 125.571 22.7105 123.915 17.879 126.705Z" fill="#FF00FF"/>
<path d="M160.519 44.3514C155.688 47.1409 154.033 53.3189 156.822 58.1503C159.611 62.9818 165.789 64.6373 170.621 61.8478C175.452 59.0584 177.108 52.8803 174.318 48.0488C171.529 43.2173 165.351 41.562 160.519 44.3514Z" fill="#FF00FF"/>
</g>
<defs>
<linearGradient id="paint0_linear" x1="187.437" y1="188.644" x2="1.11566" y2="0.341487" gradientUnits="userSpaceOnUse">
<stop stop-color="#501644"/>
<stop offset="0.333896" stop-color="#782167"/>
<stop offset="0.627417" stop-color="#D35FBC"/>
<stop offset="1" stop-color="#F4D7EE"/>
</linearGradient>
<clipPath id="clip0">
<rect width="188.553" height="188.553" fill="white"/>
</clipPath>
</defs>
</svg>
